<svg xmlns="http://www.w3.org/2000/svg" viewBox="0 0 480 552" role="img" aria-labelledby="title desc">
  <title id="title">Pankaj portrait</title>
  <desc id="desc">Stylized portrait illustration for the JellyfishAI team section.</desc>
  <defs>
    <linearGradient id="bg" x1="0" y1="0" x2="1" y2="1">
      <stop offset="0%" stop-color="#0f172a"/>
      <stop offset="55%" stop-color="#1e1b4b"/>
      <stop offset="100%" stop-color="#164e63"/>
    </linearGradient>
    <linearGradient id="cardGlow" x1="0" y1="0" x2="1" y2="1">
      <stop offset="0%" stop-color="#a855f7" stop-opacity="0.55"/>
      <stop offset="100%" stop-color="#22d3ee" stop-opacity="0.35"/>
    </linearGradient>
    <linearGradient id="shirt" x1="0" y1="0" x2="1" y2="1">
      <stop offset="0%" stop-color="#312e81"/>
      <stop offset="100%" stop-color="#0f766e"/>
    </linearGradient>
    <radialGradient id="face" cx="50%" cy="38%" r="60%">
      <stop offset="0%" stop-color="#f8c9a4"/>
      <stop offset="100%" stop-color="#d79a73"/>
    </radialGradient>
  </defs>

  <rect width="480" height="552" rx="36" fill="url(#bg)"/>
  <circle cx="380" cy="96" r="88" fill="#22d3ee" opacity="0.12"/>
  <circle cx="104" cy="132" r="94" fill="#a855f7" opacity="0.12"/>
  <rect x="20" y="20" width="440" height="512" rx="28" fill="none" stroke="url(#cardGlow)" stroke-width="2"/>

  <ellipse cx="240" cy="468" rx="146" ry="34" fill="#020617" opacity="0.38"/>

  <path d="M124 450c18-82 58-126 116-126s98 44 116 126v42H124z" fill="url(#shirt)"/>
  <path d="M172 362c18 14 41 22 68 22s50-8 68-22l26 88H146z" fill="#111827" opacity="0.45"/>

  <rect x="210" y="284" width="60" height="74" rx="24" fill="url(#face)"/>
  <path d="M212 330c10 12 22 18 28 20 8-2 20-8 30-20v22c-8 8-18 14-30 18-12-4-22-10-28-18z" fill="#c9825f" opacity="0.7"/>

  <ellipse cx="240" cy="218" rx="92" ry="102" fill="url(#face)"/>
  <path d="M151 210c-6-68 34-124 103-124 67 0 95 54 88 114-28-18-54-28-89-28-37 0-68 13-102 38z" fill="#111827"/>
  <path d="M167 162c16-36 52-62 96-62 42 0 76 22 93 56-20-12-38-18-62-20-33-3-80 6-127 26z" fill="#1f2937"/>

  <ellipse cx="202" cy="222" rx="10" ry="12" fill="#1f2937"/>
  <ellipse cx="278" cy="222" rx="10" ry="12" fill="#1f2937"/>
  <path d="M220 258c12 10 28 10 40 0" fill="none" stroke="#7c2d12" stroke-linecap="round" stroke-width="5"/>
  <path d="M223 238c7 4 27 4 34 0" fill="none" stroke="#c9825f" stroke-linecap="round" stroke-width="4"/>

  <path d="M178 195c12-10 28-15 44-12" fill="none" stroke="#111827" stroke-linecap="round" stroke-width="7"/>
  <path d="M258 183c16-3 31 2 43 12" fill="none" stroke="#111827" stroke-linecap="round" stroke-width="7"/>

  <circle cx="176" cy="246" r="8" fill="#f2b38b" opacity="0.8"/>
  <circle cx="304" cy="246" r="8" fill="#f2b38b" opacity="0.8"/>

  <path d="M162 454c16-28 39-50 78-60 39 10 62 32 78 60" fill="none" stroke="#67e8f9" stroke-opacity="0.22" stroke-width="3"/>
</svg>